<svg width="182" height="47" viewBox="0 0 182 47" fill="none" xmlns="http://www.w3.org/2000/svg">
<path fill-rule="evenodd" clip-rule="evenodd" d="M18.1553 18.4442C18.1525 18.4426 18.1497 18.441 18.1469 18.4394L20.2681 14.7494C20.9176 15.1227 21.6557 15.314 22.4048 15.303C23.1539 15.2921 23.8861 15.0793 24.5244 14.6871C25.1627 14.2949 25.6834 13.7378 26.0316 13.0745C26.3799 12.4112 26.5428 11.6663 26.5032 10.9182C26.4636 10.1701 26.223 9.44653 25.8067 8.8237C25.3904 8.20088 24.8138 7.70185 24.1377 7.37921C23.4616 7.05657 22.711 6.92225 21.9649 6.9904C21.2189 7.05855 20.505 7.32665 19.8986 7.76646L17.3998 4.32092C18.626 3.43169 20.0693 2.88962 21.5777 2.75183C23.0861 2.61404 24.6038 2.88561 25.9708 3.53795C27.3378 4.19029 28.5035 5.19924 29.3452 6.45851C30.1869 7.71778 30.6734 9.18076 30.7535 10.6933C30.8335 12.2059 30.5041 13.712 29.8 15.0531C29.0959 16.3942 28.0431 17.5205 26.7526 18.3135C25.6961 18.9626 24.5123 19.3687 23.2868 19.5067C23.7853 20.6421 24.0283 21.8768 23.9942 23.1229C23.9527 24.637 23.5037 26.1119 22.6943 27.3922C21.885 28.6725 20.7453 29.7109 19.3954 30.3978C18.0454 31.0848 16.5352 31.3949 15.0238 31.2956C13.5124 31.1963 12.0557 30.6912 10.8073 29.8335C9.55885 28.9759 8.56484 27.7973 7.92997 26.4221C7.29511 25.0469 7.0429 23.526 7.1999 22.0194L11.4332 22.4606C11.3555 23.2057 11.4803 23.958 11.7943 24.6382C12.1083 25.3183 12.5999 25.9012 13.2174 26.3254C13.8349 26.7496 14.5553 26.9995 15.3029 27.0486C16.0504 27.0977 16.7973 26.9443 17.465 26.6045C18.1327 26.2648 18.6963 25.7512 19.0966 25.118C19.4969 24.4847 19.719 23.7553 19.7395 23.0064C19.7601 22.2575 19.5782 21.517 19.2132 20.8628C18.8481 20.2086 18.3134 19.665 17.6653 19.2892L18.1553 18.4442Z" fill="#F53756"/>
<path d="M17.3078 11.4819C17.2119 13.1119 16.6443 14.6789 15.6739 15.9922C14.7035 17.3054 13.3723 18.3083 11.8423 18.8786C10.3123 19.4489 8.64946 19.5621 7.05625 19.2045C5.46304 18.8468 4.00817 18.0337 2.86875 16.8641C1.72933 15.6945 0.954506 14.2189 0.638599 12.6169C0.322691 11.0148 0.479329 9.35554 1.08944 7.84095C1.69956 6.32635 2.73683 5.0218 4.07499 4.08608C5.41315 3.15037 6.99448 2.62386 8.62647 2.57065L8.76289 6.75482C7.94218 6.78158 7.14695 7.04635 6.47401 7.51691C5.80106 7.98747 5.27943 8.64351 4.97262 9.40518C4.6658 10.1669 4.58703 11.0013 4.74589 11.8069C4.90476 12.6125 5.29441 13.3546 5.86741 13.9428C6.44041 14.531 7.17204 14.9399 7.97324 15.1197C8.77444 15.2996 9.61066 15.2427 10.3801 14.9559C11.1495 14.669 11.819 14.1647 12.3069 13.5043C12.7949 12.8439 13.0804 12.0559 13.1286 11.2361L17.3078 11.4819Z" fill="#F53756"/>
<path d="M30.7482 34.8499C30.781 35.9764 30.5875 37.098 30.179 38.1483C29.7705 39.1986 29.1553 40.1562 28.3699 40.9644C27.5846 41.7726 26.645 42.415 25.6068 42.8534C24.5687 43.2919 23.4531 43.5175 22.3261 43.5169C21.1992 43.5164 20.0838 43.2896 19.0461 42.8501C18.0084 42.4106 17.0695 41.7673 16.2849 40.9583C15.5003 40.1493 14.8861 39.1911 14.4787 38.1404C14.0712 37.0897 13.8788 35.9679 13.9128 34.8415L18.0973 34.9678C18.0802 35.5342 18.177 36.0984 18.3819 36.6268C18.5868 37.1551 18.8956 37.637 19.2902 38.0439C19.6847 38.4507 20.1569 38.7742 20.6788 38.9952C21.2006 39.2162 21.7615 39.3303 22.3282 39.3305C22.895 39.3308 23.456 39.2174 23.978 38.9969C24.5001 38.7764 24.9726 38.4534 25.3676 38.0469C25.7625 37.6405 26.0719 37.1589 26.2773 36.6307C26.4828 36.1026 26.5801 35.5385 26.5636 34.972L30.7482 34.8499Z" fill="#F53756"/>
<path fill-rule="evenodd" clip-rule="evenodd" d="M37.1852 3.08047C35.7891 2.84994 34.3574 2.9749 33.0223 3.44383L34.4097 7.39365C35.0811 7.15784 35.801 7.09499 36.5031 7.21092C37.2052 7.32686 37.8668 7.61783 38.4267 8.05697C38.9866 8.49611 39.4269 9.06926 39.7068 9.72348C39.9867 10.3777 40.0972 11.0919 40.0282 11.8001C39.9592 12.5084 39.7128 13.1878 39.3118 13.7757C38.9109 14.3635 38.3682 14.8409 37.7341 15.1637C37.0999 15.4864 36.3946 15.6442 35.6833 15.6224C34.9721 15.6005 34.2778 15.3999 33.6646 15.0389L33.3092 15.6425C33.3027 15.6388 33.2963 15.6351 33.2898 15.6314L32.6027 16.8425L31.5407 18.6465C31.5503 18.6522 31.56 18.6578 31.5697 18.6635L31.2241 19.2727C31.7139 19.5505 32.1434 19.9233 32.4874 20.3692C32.8314 20.815 33.0831 21.325 33.2276 21.8693C33.3721 22.4135 33.4067 22.9812 33.3292 23.539C33.2517 24.0967 33.0637 24.6335 32.7763 25.1177C32.4889 25.602 32.1078 26.0241 31.6553 26.3593C31.2028 26.6945 30.6879 26.9361 30.1409 27.0699C29.5939 27.2037 29.0257 27.2271 28.4696 27.1387C27.9134 27.0503 27.3805 26.8519 26.9019 26.555L24.695 30.1124C25.6466 30.7028 26.7064 31.0974 27.8123 31.2732C28.9182 31.449 30.0481 31.4025 31.1358 31.1364C32.2236 30.8702 33.2473 30.3898 34.1471 29.7233C35.047 29.0567 35.8048 28.2174 36.3764 27.2544C36.9479 26.2915 37.3217 25.2242 37.4758 24.115C37.6298 23.0058 37.5612 21.8771 37.2737 20.7948C37.178 20.4343 37.0586 20.0813 36.9167 19.7381C37.8601 19.6134 38.7789 19.3293 39.6329 18.8946C40.894 18.2528 41.973 17.3036 42.7703 16.1346C43.5677 14.9656 44.0576 13.6146 44.1948 12.2062C44.3321 10.7979 44.1123 9.37768 43.5557 8.07674C42.9991 6.7758 42.1236 5.63608 41.0102 4.76285C39.8968 3.88961 38.5813 3.31101 37.1852 3.08047Z" fill="#F53756"/>
<path d="M54.4685 12.3813V11.7027H62.8384V12.3813L60.7874 12.5321L66.7896 27.8242H66.8499L72.0981 12.5321L70.0622 12.3813V11.7027H74.873V12.3813L73.0482 12.5321L65.8847 33.5248H65.2061L56.7457 12.5321L54.4685 12.3813ZM76.1082 33.2231V32.5445L78.4306 32.3937V12.5321L76.1082 12.3813V11.7027H84.6138V12.3813L82.2913 12.5321V32.3937L84.6138 32.5445V33.2231H76.1082ZM86.8896 12.3813V11.7027H90.1169L103.056 27.3868H103.086L102.875 12.5321L100.568 12.3813V11.7027H106.148V12.3813L103.825 12.5321L103.991 33.5248H103.071L90.132 17.7954H90.1018L90.3129 32.3937L92.6203 32.5445V33.2231H87.0404V32.5445L89.3628 32.3937L89.1969 12.5321L86.8896 12.3813ZM108.213 19.0923L108.363 11.7027H124.832L124.983 19.0772H124.153C124.012 18.3031 123.887 17.6797 123.776 17.2072C123.676 16.7347 123.55 16.237 123.399 15.7142C123.248 15.1914 123.092 14.7842 122.932 14.4926C122.771 14.2011 122.575 13.9095 122.343 13.618C122.112 13.3264 121.846 13.1153 121.544 12.9846C121.253 12.8438 120.911 12.7332 120.519 12.6528C120.126 12.5623 119.674 12.517 119.161 12.517C119.121 12.517 119.036 12.5221 118.905 12.5321C118.784 12.5321 118.674 12.5321 118.573 12.5321V32.3937L120.911 32.5445V33.2231H112.405V32.5445L114.712 32.3937L114.622 12.5472C114.521 12.5472 114.406 12.5472 114.275 12.5472C114.154 12.5372 114.074 12.5321 114.034 12.5321C113.581 12.5321 113.179 12.5573 112.827 12.6075C112.475 12.6578 112.154 12.7533 111.862 12.8941C111.581 13.0348 111.334 13.1856 111.123 13.3465C110.912 13.5074 110.716 13.7386 110.535 14.0402C110.354 14.3418 110.198 14.6334 110.067 14.9149C109.947 15.1964 109.816 15.5835 109.675 16.0761C109.545 16.5587 109.334 17.5641 109.042 19.0923H108.213ZM124.574 33.2231V32.5445L126.399 32.3937L133.532 11.0844H134.211L141.585 32.3937L143.576 32.5445V33.2231H135.508V32.5445L137.543 32.3937L135.764 26.9796H129.008L127.258 32.3937L129.294 32.5445V33.2231H124.574ZM129.279 26.0748L135.432 25.9541L132.416 16.6945H132.356L129.279 26.0748ZM144.253 22.9078C144.253 21.8521 144.369 20.7914 144.6 19.7257C144.841 18.65 145.223 17.5993 145.746 16.5738C146.279 15.5383 146.917 14.6233 147.661 13.8291C148.415 13.0348 149.355 12.3964 150.481 11.9138C151.608 11.4212 152.844 11.1748 154.191 11.1748C156.222 11.1748 157.901 11.6072 159.228 12.4718C160.566 13.3364 161.234 14.3569 161.234 15.5332C161.234 16.1666 161.033 16.7045 160.631 17.1469C160.229 17.5893 159.676 17.8104 158.972 17.8104C158.319 17.8104 157.786 17.6094 157.373 17.2072C156.961 16.795 156.755 16.2772 156.755 15.6539C156.755 14.9702 156.971 14.4374 157.404 14.0553C157.836 13.6632 158.389 13.4671 159.063 13.4671V13.4068C158.841 13.1454 158.369 12.8589 157.645 12.5472C156.931 12.2355 156.082 12.0797 155.096 12.0797C153.679 12.0797 152.452 12.5221 151.416 13.4068C150.381 14.2815 149.597 15.493 149.064 17.0413C148.531 18.5896 148.265 20.3792 148.265 22.4101C148.265 23.1039 148.285 23.7724 148.325 24.4159C148.375 25.0593 148.466 25.738 148.596 26.4518C148.727 27.1656 148.893 27.8242 149.094 28.4274C149.305 29.0306 149.582 29.6138 149.923 30.1768C150.265 30.7298 150.662 31.2023 151.115 31.5944C151.567 31.9865 152.115 32.2982 152.759 32.5294C153.402 32.7607 154.111 32.8763 154.885 32.8763C155.76 32.8763 156.695 32.7255 157.69 32.4239V24.2048L155.458 24.0389V23.3602H163.361V24.0389L161.144 24.2048V32.1976C160.299 32.6903 159.238 33.0723 157.962 33.3438C156.685 33.6152 155.383 33.751 154.056 33.751C147.521 33.751 144.253 30.1366 144.253 22.9078ZM165.501 15.9706C165.501 15.679 165.551 15.3523 165.651 14.9903C165.762 14.6183 165.963 14.2061 166.255 13.7537C166.546 13.2912 166.908 12.874 167.34 12.502C167.783 12.13 168.381 11.8183 169.135 11.5669C169.899 11.3055 170.754 11.1748 171.699 11.1748C173.669 11.1748 175.233 11.6474 176.389 12.5925C177.545 13.5375 178.123 14.8596 178.123 16.5587C178.123 17.8557 177.671 18.9214 176.766 19.7559C175.861 20.5904 174.489 21.1132 172.649 21.3243V21.3545C177.123 21.7968 179.36 23.9735 179.36 27.8845C179.36 28.6385 179.209 29.3574 178.908 30.0411C178.606 30.7147 178.159 31.333 177.565 31.896C176.982 32.459 176.188 32.9064 175.183 33.2382C174.187 33.5801 173.046 33.751 171.759 33.751C169.638 33.751 168.064 33.384 167.039 32.6501C166.023 31.9161 165.516 30.9459 165.516 29.7395C165.516 29.1161 165.722 28.5732 166.134 28.1107C166.546 27.6382 167.094 27.4019 167.778 27.4019C168.431 27.4019 168.959 27.608 169.361 28.0202C169.763 28.4224 169.965 28.9351 169.965 29.5585C169.965 30.2321 169.758 30.7448 169.346 31.0967C168.934 31.4486 168.391 31.6246 167.718 31.6246V31.6849L167.929 31.9262C167.969 31.9765 168.09 32.077 168.291 32.2278C168.492 32.3786 168.698 32.4942 168.909 32.5747C169.13 32.645 169.437 32.7154 169.829 32.7858C170.221 32.8562 170.658 32.8914 171.141 32.8914C172.418 32.8914 173.428 32.459 174.172 31.5944C174.926 30.7197 175.303 29.4931 175.303 27.9147C175.303 27.5125 175.298 27.1707 175.288 26.8892C175.278 26.6076 175.238 26.2407 175.167 25.7883C175.107 25.3358 175.017 24.9487 174.896 24.627C174.785 24.3053 174.615 23.9635 174.383 23.6015C174.152 23.2396 173.876 22.943 173.554 22.7117C173.232 22.4805 172.82 22.2895 172.317 22.1387C171.825 21.9879 171.267 21.9125 170.643 21.9125H169.618V21.083H170.583C171.267 21.083 171.855 20.9624 172.347 20.7211C172.85 20.4697 173.237 20.1279 173.509 19.6956C173.78 19.2632 173.976 18.7907 174.097 18.278C174.227 17.7552 174.293 17.1821 174.293 16.5587C174.293 15.1813 174.001 14.0905 173.418 13.2862C172.835 12.4819 171.95 12.0797 170.764 12.0797C169.889 12.0797 169.125 12.3109 168.472 12.7734C167.828 13.2359 167.426 13.6883 167.265 14.1307V14.191C167.949 14.0905 168.507 14.2312 168.939 14.6133C169.371 14.9953 169.588 15.5181 169.588 16.1817C169.588 16.7749 169.402 17.2575 169.03 17.6295C168.668 17.9914 168.18 18.1724 167.567 18.1724C166.913 18.1724 166.405 17.9713 166.044 17.5692C165.682 17.167 165.501 16.6341 165.501 15.9706Z" fill="white"/>
</svg>
