<svg width="21" height="21" viewBox="0 0 21 21" fill="none" xmlns="http://www.w3.org/2000/svg">
<circle cx="7.35078" cy="7.35078" r="6.3" fill="white"/>
<path d="M14.9415 7.47934C14.9415 3.34749 11.5983 0 7.47077 0C3.3432 0 0 3.34749 0 7.47934C0 11.6112 3.3432 14.9587 7.47077 14.9587C11.5983 14.9587 14.9415 11.6069 14.9415 7.47934ZM7.47077 13.2828C4.26901 13.2828 1.6716 10.6854 1.6716 7.47934C1.6716 4.26901 4.26901 1.6716 7.47077 1.6716C10.6725 1.6716 13.2699 4.2733 13.2699 7.47934C13.2742 10.6854 10.6768 13.2828 7.47077 13.2828Z" fill="url(#paint0_linear_3091_14002)"/>
<path d="M19.3118 14.1391L14.927 11.1816C14.1255 12.7932 12.814 14.1091 11.2109 14.9235L14.147 19.3253C15.4457 21.2927 18.2445 21.5756 19.9118 19.9082C21.5791 18.2409 21.2963 15.4592 19.3118 14.1391Z" fill="url(#paint1_linear_3091_14002)"/>
<g filter="url(#filter0_d_3091_14002)">
<path d="M5.72444 8.30776C5.95561 8.41211 6.14206 8.60032 6.24523 8.83346C6.34841 9.06659 6.36041 9.32681 6.27874 9.56028C6.06486 9.93409 5.46883 9.97834 4.94863 9.6597C4.71732 9.55548 4.5307 9.3673 4.42738 9.13414C4.32407 8.90097 4.31198 8.64066 4.39361 8.40709C4.6075 8.03329 5.20386 7.98944 5.72444 8.30776ZM10.8609 9.36649C10.726 9.48007 10.569 9.56463 10.3988 9.6153C10.2286 9.66598 10.0486 9.68178 9.86918 9.66179C9.73516 9.64707 9.60321 9.68638 9.50231 9.77107C9.40141 9.85576 9.33983 9.97891 9.33109 10.1134C9.30563 10.4757 9.13838 10.8066 8.86587 11.034C8.59336 11.2613 8.23774 11.3666 7.87671 11.3268C7.51567 11.287 7.17856 11.1053 6.93902 10.8215C6.69949 10.5377 6.57699 10.1749 6.5983 9.81217C6.62568 9.38517 6.7366 8.97157 6.92472 8.595C7.11284 8.21842 7.37448 7.88626 7.69468 7.6175C8.01488 7.34874 8.38737 7.14864 8.79085 7.02864C9.19433 6.90864 9.6209 6.87109 10.0462 6.91815C10.3164 6.94801 10.5753 7.05764 10.7902 7.23318C11.0052 7.40871 11.1664 7.64226 11.2536 7.90431C11.3408 8.16636 11.3501 8.44514 11.2802 8.7054C11.2103 8.96566 11.0644 9.19572 10.8609 9.36649ZM6.4984 6.40182C6.99573 6.89577 7.12108 7.5806 6.77859 7.93078C6.4361 8.28097 5.75537 8.16455 5.25843 7.67029C4.76143 7.17675 4.63609 6.49192 4.97858 6.14173C5.32073 5.79114 6.00108 5.90788 6.4984 6.40182ZM6.70477 6.2286C7.10503 6.80402 7.75776 7.04619 8.16202 6.76958C8.56627 6.49298 8.56924 5.8027 8.16898 5.22728C7.76906 4.65226 7.11632 4.4101 6.71207 4.6867C6.30748 4.9629 6.30413 5.65351 6.70477 6.2286ZM8.71568 5.79634C8.77822 6.04237 8.93129 6.25892 9.14319 6.40113C9.35508 6.54333 9.60954 6.60028 9.85383 6.56017C10.2587 6.41392 10.4056 5.83458 10.182 5.26702C10.1194 5.02115 9.96645 4.80473 9.75472 4.66257C9.54299 4.5204 9.28872 4.46336 9.04453 4.50328C8.63932 4.64913 8.49242 5.22846 8.71568 5.79634Z" fill="url(#paint2_linear_3091_14002)"/>
</g>
<defs>
<filter id="filter0_d_3091_14002" x="4.33984" y="4.49023" width="6.98828" height="7.8457" filterUnits="userSpaceOnUse" color-interpolation-filters="sRGB">
<feFlood flood-opacity="0" result="BackgroundImageFix"/>
<feColorMatrix in="SourceAlpha" type="matrix" values="0 0 0 0 0 0 0 0 0 0 0 0 0 0 0 0 0 0 127 0" result="hardAlpha"/>
<feOffset dy="1"/>
<feComposite in2="hardAlpha" operator="out"/>
<feColorMatrix type="matrix" values="0 0 0 0 0 0 0 0 0 0 0 0 0 0 0 0 0 0 0.05 0"/>
<feBlend mode="normal" in2="BackgroundImageFix" result="effect1_dropShadow_3091_14002"/>
<feBlend mode="normal" in="SourceGraphic" in2="effect1_dropShadow_3091_14002" result="shape"/>
</filter>
<linearGradient id="paint0_linear_3091_14002" x1="6.2802" y1="13.0406" x2="7.47355" y2="-0.538726" gradientUnits="userSpaceOnUse">
<stop stop-color="#6FCFB9"/>
<stop offset="1" stop-color="#11A683"/>
</linearGradient>
<linearGradient id="paint1_linear_3091_14002" x1="15.326" y1="19.7402" x2="16.1104" y2="10.8283" gradientUnits="userSpaceOnUse">
<stop stop-color="#6FCFB9"/>
<stop offset="1" stop-color="#11A683"/>
</linearGradient>
<linearGradient id="paint2_linear_3091_14002" x1="8.91955" y1="9.94892" x2="5.603" y2="5.30741" gradientUnits="userSpaceOnUse">
<stop stop-color="#6FCFB9"/>
<stop offset="1" stop-color="#11A683"/>
</linearGradient>
</defs>
</svg>
