<svg width="21" height="21" viewBox="0 0 21 21" fill="none" xmlns="http://www.w3.org/2000/svg">
<path d="M10.5 21C16.299 21 21 16.299 21 10.5C21 4.70101 16.299 0 10.5 0C4.70101 0 0 4.70101 0 10.5C0 16.299 4.70101 21 10.5 21Z" fill="url(#paint0_linear_3091_13981)"/>
<path d="M10.499 20.2734C15.8961 20.2734 20.2714 15.8981 20.2714 10.5009C20.2714 5.10378 15.8961 0.728516 10.499 0.728516C5.10183 0.728516 0.726562 5.10378 0.726562 10.5009C0.726562 15.8981 5.10183 20.2734 10.499 20.2734Z" fill="url(#paint1_linear_3091_13981)"/>
<g filter="url(#filter0_d_3091_13981)">
<path d="M11.287 12.0428C11.2712 12.3469 11.1421 12.6377 10.9264 12.8549C10.7107 13.0721 10.4249 13.1991 10.1281 13.2098C9.61658 13.1338 9.30681 12.4864 9.43604 11.7655C9.4516 11.4612 9.58057 11.1703 9.79625 10.9529C10.0119 10.7356 10.2978 10.6084 10.5947 10.5977C11.1062 10.6737 11.4157 11.3216 11.287 12.0428ZM12.3458 18.2503C12.1599 18.149 11.9967 18.0102 11.8657 17.842C11.7347 17.6737 11.6384 17.4793 11.5824 17.27C11.5404 17.1136 11.4388 16.9832 11.3 16.9073C11.1612 16.8315 10.9966 16.8164 10.8423 16.8653C10.426 16.995 9.98283 16.9525 9.60955 16.747C9.23626 16.5414 8.96323 16.1897 8.85009 15.7685C8.73695 15.3473 8.7929 14.8909 9.00571 14.499C9.21853 14.1072 9.57092 13.8117 9.98589 13.6772C10.4754 13.5213 10.9865 13.4648 11.4898 13.5108C11.9932 13.5567 12.4789 13.7043 12.9194 13.9451C13.3598 14.1859 13.7463 14.5151 14.0567 14.914C14.3671 15.3129 14.5954 15.7736 14.7285 16.2698C14.813 16.5851 14.8035 16.9226 14.701 17.2396C14.5985 17.5566 14.4077 17.839 14.1527 18.051C13.8977 18.2629 13.5899 18.395 13.2683 18.4305C12.9467 18.466 12.6257 18.4033 12.3458 18.2503ZM13.7567 12.0762C13.4214 12.8482 12.7102 13.2874 12.1689 13.0573C11.6277 12.8271 11.4606 12.0149 11.7965 11.2432C12.1314 10.4718 12.8427 10.0326 13.3839 10.2627C13.9255 10.4923 14.092 11.3042 13.7567 12.0762ZM14.0406 12.2314C13.5717 12.9303 13.5859 13.7662 14.0718 14.0975C14.5577 14.4289 15.3311 14.1308 15.7999 13.4318C16.2684 12.7334 16.2543 11.8976 15.7683 11.5662C15.2827 11.2343 14.5088 11.5321 14.0406 12.2314ZM15.4022 14.2918C15.1543 14.4692 14.9789 14.735 14.9124 15.0341C14.8459 15.3331 14.8933 15.6426 15.0449 15.8984C15.3852 16.2873 16.0974 16.1987 16.6345 15.7007C16.8822 15.5233 17.0575 15.2577 17.124 14.9588C17.1906 14.6599 17.1433 14.3506 16.9921 14.0949C16.652 13.7054 15.9398 13.7941 15.4022 14.2918Z" fill="white"/>
<path d="M10.3918 5.61374C10.5075 5.77948 10.5584 5.9844 10.534 6.18611C10.5095 6.38782 10.4116 6.57088 10.2604 6.69741C9.96149 6.8661 9.53536 6.65326 9.30917 6.2229C9.19332 6.05719 9.1423 5.85223 9.16668 5.65044C9.19106 5.44865 9.28897 5.26549 9.44013 5.13888C9.73906 4.9702 10.1653 5.18344 10.3918 5.61374ZM13.4767 8.4339C13.338 8.45663 13.196 8.45045 13.0588 8.41572C12.9216 8.38099 12.7919 8.31839 12.6773 8.23153C12.5915 8.16678 12.4851 8.13986 12.3815 8.15669C12.2779 8.17351 12.1855 8.23271 12.1246 8.32126C11.9594 8.55888 11.7099 8.71724 11.4306 8.76173C11.1513 8.80622 10.8649 8.73323 10.6339 8.55871C10.4029 8.38418 10.2462 8.12231 10.198 7.83029C10.1498 7.53828 10.2139 7.23986 10.3765 7.00022C10.5694 6.71904 10.814 6.48111 11.0964 6.30002C11.3789 6.11893 11.6935 5.99824 12.0224 5.94484C12.3512 5.89145 12.6879 5.90639 13.0131 5.98882C13.3383 6.07125 13.6456 6.21955 13.9176 6.42524C14.0904 6.55592 14.223 6.7366 14.2986 6.94445C14.3741 7.1523 14.3892 7.37799 14.342 7.59298C14.2949 7.80797 14.1875 8.00261 14.0334 8.15229C13.8794 8.30197 13.6857 8.39997 13.4767 8.4339ZM11.6992 4.62453C11.8382 5.16558 11.6447 5.6856 11.2673 5.78565C10.89 5.8857 10.4714 5.52831 10.3328 4.98719C10.1939 4.44655 10.3874 3.92653 10.7647 3.82648C11.142 3.72602 11.5602 4.08347 11.6992 4.62453ZM11.9112 4.59011C11.9505 5.14735 12.2986 5.57942 12.6882 5.55494C13.0778 5.53046 13.3614 5.05906 13.3221 4.50182C13.2829 3.94498 12.9347 3.51292 12.5451 3.5374C12.1554 3.56146 11.8714 4.03293 11.9112 4.59011ZM13.4643 5.11445C13.4067 5.3084 13.4232 5.51911 13.5103 5.70291C13.5973 5.8867 13.7483 6.02949 13.932 6.10169C14.2688 6.16671 14.6057 5.82999 14.6841 5.35017C14.7416 5.15631 14.7251 4.94574 14.6382 4.76203C14.5512 4.57833 14.4004 4.43555 14.2169 4.36327C13.88 4.29784 13.5431 4.63456 13.4643 5.11445Z" fill="white"/>
<path d="M3.22712 9.68893C3.44415 9.7869 3.6192 9.9636 3.71607 10.1825C3.81294 10.4014 3.8242 10.6457 3.74753 10.8649C3.54672 11.2158 2.98713 11.2574 2.49873 10.9582C2.28157 10.8604 2.10635 10.6837 2.00935 10.4648C1.91235 10.2459 1.901 10.0015 1.97764 9.78219C2.17845 9.43124 2.73836 9.39006 3.22712 9.68893ZM8.0496 10.6829C7.92293 10.7896 7.77546 10.869 7.61566 10.9165C7.45587 10.9641 7.2869 10.9789 7.11847 10.9602C6.99264 10.9464 6.86875 10.9833 6.77402 11.0628C6.67929 11.1423 6.62147 11.2579 6.61328 11.3842C6.58937 11.7243 6.43234 12.035 6.17649 12.2485C5.92064 12.4619 5.58677 12.5607 5.2478 12.5234C4.90884 12.486 4.59234 12.3155 4.36744 12.049C4.14255 11.7826 4.02755 11.4419 4.04755 11.1014C4.07325 10.7005 4.17739 10.3122 4.35401 9.9586C4.53064 9.60505 4.77628 9.2932 5.0769 9.04087C5.37753 8.78853 5.72724 8.60067 6.10606 8.488C6.48487 8.37534 6.88536 8.34009 7.28464 8.38427C7.53833 8.41231 7.78144 8.51524 7.98322 8.68004C8.185 8.84484 8.3364 9.06411 8.41827 9.31014C8.50015 9.55617 8.50882 9.81791 8.4432 10.0623C8.37758 10.3066 8.2406 10.5226 8.0496 10.6829ZM3.95376 7.89951C4.42068 8.36325 4.53837 9.00622 4.21682 9.335C3.89526 9.66378 3.25615 9.55448 2.78959 9.09043C2.32298 8.62706 2.20529 7.98409 2.52685 7.65532C2.84809 7.32616 3.48684 7.43576 3.95376 7.89951ZM4.14751 7.73688C4.5233 8.27712 5.13613 8.50448 5.51567 8.24479C5.89521 7.98509 5.89799 7.33701 5.52221 6.79677C5.14673 6.2569 4.5339 6.02954 4.15436 6.28924C3.77451 6.54856 3.77137 7.19694 4.14751 7.73688ZM6.03549 7.33104C6.0942 7.56203 6.23792 7.76535 6.43686 7.89885C6.63579 8.03236 6.8747 8.08583 7.10406 8.04817C7.48419 7.91086 7.62211 7.36695 7.41213 6.83408C7.35341 6.60324 7.20979 6.40006 7.011 6.26658C6.81222 6.1331 6.57349 6.07956 6.34424 6.11703C5.96379 6.25396 5.82587 6.79788 6.03549 7.33104Z" fill="white"/>
</g>
<g filter="url(#filter1_d_3091_13981)">
<path d="M10.3918 4.80515C10.5075 4.97089 10.5584 5.17581 10.534 5.37752C10.5095 5.57922 10.4116 5.76228 10.2604 5.88882C9.96149 6.0575 9.53536 5.84467 9.30917 5.4143C9.19332 5.24859 9.1423 5.04363 9.16668 4.84185C9.19106 4.64006 9.28897 4.4569 9.44013 4.33028C9.73906 4.1616 10.1653 4.37485 10.3918 4.80515ZM13.4767 7.62531C13.338 7.64803 13.196 7.64185 13.0588 7.60712C12.9216 7.57239 12.7919 7.5098 12.6773 7.42293C12.5915 7.35819 12.4851 7.33127 12.3815 7.34809C12.2779 7.36492 12.1855 7.42411 12.1246 7.51267C11.9594 7.75029 11.7099 7.90865 11.4306 7.95314C11.1513 7.99763 10.8649 7.92464 10.6339 7.75011C10.4029 7.57559 10.2462 7.31371 10.198 7.0217C10.1498 6.72968 10.2139 6.43126 10.3765 6.19163C10.5694 5.91045 10.814 5.67252 11.0964 5.49143C11.3789 5.31034 11.6935 5.18965 12.0224 5.13625C12.3512 5.08285 12.6879 5.0978 13.0131 5.18022C13.3383 5.26265 13.6456 5.41095 13.9176 5.61665C14.0904 5.74732 14.223 5.92801 14.2986 6.13586C14.3741 6.34371 14.3892 6.5694 14.342 6.78439C14.2949 6.99938 14.1875 7.19401 14.0334 7.34369C13.8794 7.49337 13.6857 7.59138 13.4767 7.62531ZM11.6992 3.81593C11.8382 4.35699 11.6447 4.877 11.2673 4.97705C10.89 5.07711 10.4714 4.71972 10.3328 4.1786C10.1939 3.63795 10.3874 3.11794 10.7647 3.01789C11.142 2.91742 11.5602 3.27488 11.6992 3.81593ZM11.9112 3.78152C11.9505 4.33876 12.2986 4.77083 12.6882 4.74635C13.0778 4.72187 13.3614 4.25047 13.3221 3.69322C13.2829 3.13639 12.9347 2.70433 12.5451 2.7288C12.1554 2.75287 11.8714 3.22434 11.9112 3.78152ZM13.4643 4.30585C13.4067 4.49981 13.4232 4.71052 13.5103 4.89432C13.5973 5.07811 13.7483 5.2209 13.932 5.29309C14.2688 5.35812 14.6057 5.02139 14.6841 4.54157C14.7416 4.34772 14.7251 4.13714 14.6382 3.95344C14.5512 3.76973 14.4004 3.62696 14.2169 3.55468C13.88 3.48924 13.5431 3.82597 13.4643 4.30585Z" fill="white"/>
<path d="M3.22712 9.04635C3.44415 9.14432 3.6192 9.32102 3.71607 9.53991C3.81294 9.75879 3.8242 10.0031 3.74753 10.2223C3.54672 10.5732 2.98713 10.6148 2.49873 10.3156C2.28157 10.2178 2.10635 10.0411 2.00935 9.82221C1.91235 9.60329 1.901 9.3589 1.97764 9.13961C2.17845 8.78866 2.73836 8.74749 3.22712 9.04635ZM8.0496 10.0404C7.92293 10.147 7.77546 10.2264 7.61566 10.274C7.45587 10.3215 7.2869 10.3364 7.11847 10.3176C6.99264 10.3038 6.86875 10.3407 6.77402 10.4202C6.67929 10.4997 6.62147 10.6153 6.61328 10.7416C6.58937 11.0817 6.43234 11.3924 6.17649 11.6059C5.92064 11.8193 5.58677 11.9182 5.2478 11.8808C4.90884 11.8434 4.59234 11.6729 4.36744 11.4064C4.14255 11.14 4.02755 10.7993 4.04755 10.4588C4.07325 10.0579 4.17739 9.66958 4.35401 9.31603C4.53064 8.96248 4.77628 8.65062 5.0769 8.39829C5.37753 8.14595 5.72724 7.95809 6.10606 7.84542C6.48487 7.73276 6.88536 7.69751 7.28464 7.74169C7.53833 7.76973 7.78144 7.87266 7.98322 8.03746C8.185 8.20226 8.3364 8.42154 8.41827 8.66757C8.50015 8.91359 8.50882 9.17533 8.4432 9.41968C8.37758 9.66403 8.24061 9.88002 8.0496 10.0404ZM3.95376 7.25693C4.42069 7.72068 4.53837 8.36364 4.21682 8.69242C3.89526 9.0212 3.25615 8.9119 2.78959 8.44785C2.32298 7.98448 2.20529 7.34152 2.52685 7.01274C2.84809 6.68358 3.48684 6.79318 3.95376 7.25693ZM4.14751 7.0943C4.5233 7.63454 5.13613 7.8619 5.51567 7.60221C5.89521 7.34251 5.89799 6.69443 5.52221 6.15419C5.14673 5.61432 4.5339 5.38697 4.15436 5.64666C3.77451 5.90598 3.77137 6.55436 4.14751 7.0943ZM6.03549 6.68847C6.0942 6.91945 6.23792 7.12277 6.43686 7.25628C6.63579 7.38979 6.8747 7.44325 7.10406 7.40559C7.48419 7.26828 7.62211 6.72437 7.41213 6.1915C7.35341 5.96067 7.20979 5.75748 7.011 5.624C6.81222 5.49052 6.57349 5.43698 6.34424 5.47445C5.96379 5.61138 5.82587 6.1553 6.03549 6.68847Z" fill="white"/>
</g>
<defs>
<filter id="filter0_d_3091_13981" x="1.92578" y="3.53711" width="15.2266" height="15.9023" filterUnits="userSpaceOnUse" color-interpolation-filters="sRGB">
<feFlood flood-opacity="0" result="BackgroundImageFix"/>
<feColorMatrix in="SourceAlpha" type="matrix" values="0 0 0 0 0 0 0 0 0 0 0 0 0 0 0 0 0 0 127 0" result="hardAlpha"/>
<feOffset dy="1"/>
<feComposite in2="hardAlpha" operator="out"/>
<feColorMatrix type="matrix" values="0 0 0 0 0 0 0 0 0 0 0 0 0 0 0 0 0 0 0.25 0"/>
<feBlend mode="normal" in2="BackgroundImageFix" result="effect1_dropShadow_3091_13981"/>
<feBlend mode="normal" in="SourceGraphic" in2="effect1_dropShadow_3091_13981" result="shape"/>
</filter>
<filter id="filter1_d_3091_13981" x="1.92578" y="2.72852" width="12.793" height="10.1602" filterUnits="userSpaceOnUse" color-interpolation-filters="sRGB">
<feFlood flood-opacity="0" result="BackgroundImageFix"/>
<feColorMatrix in="SourceAlpha" type="matrix" values="0 0 0 0 0 0 0 0 0 0 0 0 0 0 0 0 0 0 127 0" result="hardAlpha"/>
<feOffset dy="1"/>
<feComposite in2="hardAlpha" operator="out"/>
<feColorMatrix type="matrix" values="0 0 0 0 0 0 0 0 0 0 0 0 0 0 0 0 0 0 0.25 0"/>
<feBlend mode="normal" in2="BackgroundImageFix" result="effect1_dropShadow_3091_13981"/>
<feBlend mode="normal" in="SourceGraphic" in2="effect1_dropShadow_3091_13981" result="shape"/>
</filter>
<linearGradient id="paint0_linear_3091_13981" x1="13.7367" y1="3.19606" x2="7.90859" y2="14.9463" gradientUnits="userSpaceOnUse">
<stop stop-color="#6FCFB9"/>
<stop offset="1" stop-color="#11A683"/>
</linearGradient>
<linearGradient id="paint1_linear_3091_13981" x1="8.94162" y1="17.7673" x2="10.4991" y2="0.0243107" gradientUnits="userSpaceOnUse">
<stop stop-color="#6FCFB9"/>
<stop offset="1" stop-color="#11A683"/>
</linearGradient>
</defs>
</svg>
